<?xml version="1.0" standalone="no"?><!DOCTYPE svg PUBLIC "-//W3C//DTD SVG 1.1//EN" "http://www.w3.org/Graphics/SVG/1.1/DTD/svg11.dtd"><svg class="icon" height="512" viewBox="0 0 1024 1024" version="1.1" xmlns="http://www.w3.org/2000/svg"><style type="text/css">
	.st0{fill:rgb(55, 57, 58);}x
</style>
<path class="st0" d="M359.16001 820.430628M182.239578 675.198919c-66.868967 0-121.270994-54.402027-121.270994-121.270994 0-66.868967 54.402027-121.270994 121.270994-121.270994s121.270994 54.402027 121.270994 121.270994C303.510572 620.795868 249.108544 675.198919 182.239578 675.198919zM182.239578 494.055303c-33.013905 0-59.872622 26.858718-59.872622 59.872622s26.858718 59.872622 59.872622 59.872622 59.872622-26.858718 59.872622-59.872622S215.253482 494.055303 182.239578 494.055303zM532.225647 385.40679c-66.868967 0-121.270994-54.402027-121.270994-121.270994s54.402027-121.270994 121.270994-121.270994c66.868967 0 121.270994 54.402027 121.270994 121.270994S599.094614 385.40679 532.225647 385.40679zM532.225647 204.263174c-33.013905 0-59.872622 26.858718-59.872622 59.872622s26.859741 59.872622 59.872622 59.872622 59.872622-26.858718 59.872622-59.872622S565.239552 204.263174 532.225647 204.263174zM531.968797 675.231665c-24.420179 0-48.239677-7.388271-68.74878-21.579481-26.63666-18.431791-44.502563-46.133713-50.304709-78.002538-5.802146-31.869848 1.153266-64.089667 19.585057-90.727351 18.431791-26.637684 46.133713-44.502563 78.002538-50.304709 31.872918-5.8001 64.089667 1.153266 90.726328 19.586081 26.637684 18.431791 44.502563 46.133713 50.304709 78.002538 5.802146 31.868825-1.153266 64.089667-19.586081 90.726328-18.431791 26.637684-46.133713 44.502563-78.003562 50.304709C546.615379 674.571632 539.26497 675.231665 531.968797 675.231665zM532.351514 494.03893c-3.603061 0-7.229658 0.325411-10.851139 0.984421-15.733333 2.864234-29.410843 11.68411-38.510082 24.835641-9.100262 13.151531-12.534478 29.058826-9.66922 44.793182 2.864234 15.733333 11.68411 29.40982 24.835641 38.510082s29.05678 12.536524 44.792159 9.66922c15.733333-2.864234 29.40982-11.68411 38.510082-24.835641l0 0c9.101285-13.151531 12.534478-29.058826 9.670244-44.792159-2.865257-15.733333-11.685133-29.410843-24.836665-38.510082C556.168965 497.687016 544.408107 494.03893 532.351514 494.03893zM258.440074 569.155744l0-30.455639c0-6.753821 5.525853-12.279674 12.279674-12.279674l158.647253 0c6.753821 0 12.279674 5.525853 12.279674 12.279674l0 30.455639c0 6.753821-5.525853 12.279674-12.279674 12.279674L270.719748 581.435419C263.965927 581.435419 258.440074 575.909565 258.440074 569.155744zM518.65149 354.712721l30.442336 0.89744c6.750751 0.199545 12.111852 5.885034 11.912307 12.636808l-2.570545 87.170339c-0.199545 6.750751-5.885034 12.111852-12.636808 11.912307l-30.442336-0.89744c-6.750751-0.199545-12.111852-5.885034-11.912307-12.636808l2.570545-87.170339C506.21525 359.874277 511.900739 354.513176 518.65149 354.712721zM756.37473 458.707236l9.41237 28.964682c2.087545 6.423293-1.460258 13.385868-7.883551 15.473413l-123.408681 40.102347c-6.423293 2.087545-13.385868-1.460258-15.473413-7.883551l-9.41237-28.964682c-2.087545-6.423293 1.460258-13.385868 7.883551-15.473413l123.408681-40.102347C747.323587 448.736141 754.287185 452.283943 756.37473 458.707236zM828.299853 557.12064c-66.868967 0-121.270994-54.403051-121.270994-121.272018S761.431909 314.577628 828.299853 314.577628 949.570847 368.979656 949.570847 435.848623 895.16882 557.12064 828.299853 557.12064zM828.299853 375.976c-33.013905 0-59.872622 26.858718-59.872622 59.872622 0 33.013905 26.858718 59.872622 59.872622 59.872622s59.872622-26.858718 59.872622-59.872622C888.172475 402.834718 861.313757 375.976 828.299853 375.976zM680.888502 743.359298l-25.15696 17.164938c-5.579065 3.806699-13.257955 2.356674-17.064654-3.222391l-77.16752-113.094778c-3.806699-5.579065-2.356674-13.257955 3.222391-17.064654l25.15696-17.164938c5.579065-3.806699 13.257955-2.356674 17.064654 3.222391l77.16752 113.094778C687.917592 731.87371 686.467567 739.552599 680.888502 743.359298zM721.233372 941.701622c-66.868967 0-121.270994-54.402027-121.270994-121.270994s54.402027-121.270994 121.270994-121.270994 121.270994 54.402027 121.270994 121.270994S788.101315 941.701622 721.233372 941.701622zM721.233372 760.559029c-33.013905 0-59.872622 26.858718-59.872622 59.872622s26.858718 59.872622 59.872622 59.872622 59.872622-26.858718 59.872622-59.872622S754.246253 760.559029 721.233372 760.559029z" /></svg>