<svg xmlns="http://www.w3.org/2000/svg" width="1000" height="1000"><g fill="#414042"><path d="M823.335 648.682c-10.237-17.487-32.266-23.664-50.103-14.436l-51.691-58.282c8.186-23.804 12.663-49.337 12.663-75.98 0-26.093-4.335-51.211-12.247-74.664l43.784-51.833c10.618 4.441 22.967 4.094 33.583-2.151 18.045-10.479 24.15-33.725 13.602-51.767-10.583-18.04-33.793-24.215-51.871-13.599-10.614 6.175-16.961 16.862-18.353 28.241l-65.64 12.559c-33.932-39.135-80.563-66.89-133.576-76.882l-24.91-72.374c16.479-11.034 21.893-33.168 11.729-50.585-10.583-17.973-33.794-24.147-51.834-13.532-18.043 10.478-24.184 33.793-13.6 51.834 2.74 4.72 6.383 8.604 10.581 11.519l-24.979 74.386c-51.384 11.033-96.417 38.927-129.169 77.577l-73.483-13.739c-.348-5.691-1.874-11.379-4.927-16.654-10.546-18.041-33.791-24.147-51.833-13.599-18.042 10.547-24.148 33.794-13.601 51.833 9.646 16.515 29.908 22.896 47.046 15.75l51.557 59.05c-6.662 21.719-10.235 44.756-10.235 68.629 0 26.713 4.474 52.321 12.733 76.187l-52.945 61.965c-10.929-5.206-24.148-5.065-35.319 1.455-18.11 10.62-24.148 33.793-13.6 51.904 10.547 17.972 33.791 24.148 51.833 13.602 11.206-6.594 17.764-18.039 18.666-30.114l81.011-15.893c32.094 34.628 74.49 59.536 122.368 69.876l26.438 75.149c-14.78 11.52-19.291 32.336-9.576 48.92 10.546 18.042 33.792 24.146 51.868 13.601 18.007-10.547 24.113-33.795 13.567-51.904-2.741-4.58-6.314-8.465-10.411-11.447l25.225-73.971c48.884-10.131 92.218-35.459 124.797-70.917l80.873 15.613c.729 4.441 2.081 8.813 4.547 12.905 10.51 18.043 33.718 24.148 51.832 13.602 18.04-10.547 24.111-33.862 13.6-51.834zM499.98 672.205c-95.132 0-172.223-77.091-172.223-172.221 0-95.135 77.091-172.225 172.223-172.225 95.098 0 172.225 77.09 172.225 172.225 0 95.13-77.127 172.221-172.225 172.221z"/><path d="M467.786 513.305c-1.911-6.456-2.638-12.004-2.291-16.69.38-5.238 2.082-10.718 5.03-16.2 3.019-5.482 6.453-9.924 10.305-13.253l96.312-82.573c-29.352-19.569-66.057-28.105-103.46-20.956-75.321 14.57-124.554 87.359-110.05 162.645 0 0 .969 6.66 4.372 16.799.206.619.415 1.245.659 1.871.38 1.107.796 2.284 1.213 3.469 1.527 3.889 3.054 7.702 4.788 11.451l.139-.075c9.784 20.401 27.756 45.799 60.125 62.87.521.207 1.042.483 1.563.763 1.597.833 3.191 1.593 4.788 2.356 1.109.485 2.22.976 3.261 1.459.486.207.972.416 1.457.692v-.068c24.529 10.408 52.25 13.843 80.319 8.468 13.354-2.57 25.915-7.078 37.503-12.979l-83.961-90.416c-6.176-6.446-10.235-13.107-12.072-19.633z"/></g><path fill="#27AAE1" d="M611.524 417.27l-81.705 67.241c-3.018 2.426-5.831 4.786-8.467 7.353-2.082 1.944-3.227 4.647-3.468 8.12-.278 4.649.692 8.5 3.19 11.726 2.879 3.674 5.9 7.218 8.952 10.48l71.055 72.992c29.42-31.364 43.992-75.978 35.249-121.429-4.058-21.165-12.731-40.317-24.806-56.483z"/><linearGradient id="a" gradientUnits="userSpaceOnUse" x1="551.445" y1="678.835" x2="396.011" y2="256.945"><stop offset="0" stop-color="#fff"/><stop offset=".137" stop-color="#fff" stop-opacity=".863"/><stop offset="1" stop-color="#fff" stop-opacity="0"/></linearGradient><path fill="url(#a)" d="M479.58 533.008c-6.176-6.517-10.233-13.108-12.073-19.703-1.909-6.387-2.635-11.934-2.29-16.653.381-5.205 2.082-10.754 5.031-16.167 3.02-5.551 6.453-9.994 10.305-13.256l96.312-82.571c-29.352-19.568-66.059-28.174-103.46-20.955-75.321 14.5-124.552 87.361-110.051 162.65 0 0 .972 6.655 4.372 16.791.209.552.417 1.247.659 1.873a135.66 135.66 0 001.215 3.399c1.526 3.958 3.054 7.77 4.789 11.521l.138-.145c1.318 2.779 3.192 5.76 4.857 8.678 39.621-4.301 77.786-11.244 113.73-20.887l-13.534-14.575z"/><linearGradient id="b" gradientUnits="userSpaceOnUse" x1="607.4" y1="658.183" x2="451.969" y2="236.301"><stop offset="0" stop-color="#fff"/><stop offset=".137" stop-color="#fff" stop-opacity=".863"/><stop offset="1" stop-color="#fff" stop-opacity="0"/></linearGradient><path fill="url(#b)" d="M722.096 426.915c-.209-.483-.243-1.042-.417-1.595l43.784-51.767c.383.143.833.21 1.214.349 14.157-21.578 24.323-44.409 30.637-68.07-11.207-5.898-24.804-6.731-36.531.138-10.618 6.244-16.971 16.93-18.356 28.309l-65.642 12.56c-33.93-39.204-80.56-66.958-133.573-76.951L518.3 197.583c16.479-11.032 21.891-33.167 11.727-50.585-10.583-18.042-33.829-24.147-51.835-13.601-18.04 10.549-24.18 33.793-13.6 51.834a36.97 36.97 0 0010.583 11.589l-24.981 74.315c-51.381 11.033-96.416 38.927-129.167 77.646l-73.483-13.74c-.347-5.688-1.873-11.379-4.927-16.723-10.547-18.041-33.793-24.078-51.833-13.53-18.042 10.546-24.147 33.793-13.601 51.765 9.646 16.515 29.907 22.968 47.046 15.819l51.558 58.98c-6.662 21.719-10.201 44.756-10.201 68.698 0 25.605 4.301 50.167 11.934 73.207 4.094.068 8.085.413 12.213.413 18.214 0 36.151-.627 53.916-1.804-10.13-21.925-16.168-46.073-16.168-71.816 0-95.135 77.091-172.294 172.225-172.294 84.655 0 154.705 61.27 169.169 141.763 19.531-13.252 37.401-27.408 53.221-42.604z"/><linearGradient id="c" gradientUnits="userSpaceOnUse" x1="636.079" y1="647.548" x2="480.728" y2="225.883"><stop offset="0" stop-color="#fff"/><stop offset=".137" stop-color="#fff" stop-opacity=".863"/><stop offset="1" stop-color="#fff" stop-opacity="0"/></linearGradient><path fill="url(#c)" d="M611.245 417.34l-81.702 67.239a117.123 117.123 0 00-8.468 7.285c-2.081 2.014-3.226 4.647-3.469 8.189-.278 4.65.694 8.463 3.191 11.656 2.881 3.751 5.898 7.288 8.951 10.48l10.547 10.818c35.459-12.277 68.071-27.267 97.701-44.267-.418-4.926-.973-9.923-1.942-14.988-4.059-21.164-12.734-40.243-24.809-56.412z"/></svg>